<?xml version="1.0" encoding="UTF-8" standalone="no"?><!DOCTYPE svg PUBLIC "-//W3C//DTD SVG 1.1//EN" "http://www.w3.org/Graphics/SVG/1.1/DTD/svg11.dtd"><svg width="100%" height="100%" viewBox="0 0 108 108" version="1.1" xmlns="http://www.w3.org/2000/svg" xmlns:xlink="http://www.w3.org/1999/xlink" xml:space="preserve" xmlns:serif="http://www.serif.com/" style="fill-rule:evenodd;clip-rule:evenodd;stroke-linejoin:round;stroke-miterlimit:2;"><g id="Master"><g id="bear"><path d="M74.743,40.25c0.012,-0.004 0.026,0.002 0.029,0.015c0.169,0.707 0.166,2.276 -1.961,4.525c-5.739,6.07 -7.568,11.463 -9.037,15.796c-0.71,2.093 -1.324,3.901 -2.248,5.314c-0.8,1.142 -1.492,2.128 -2.854,2.128c-1.367,-0 -2.059,-0.989 -2.861,-2.136c-0.861,-1.23 -1.838,-2.626 -3.807,-2.626c-1.969,-0 -2.946,1.396 -3.81,2.629c-0.801,1.144 -1.494,2.133 -2.858,2.133c-1.275,-0 -1.964,-0.862 -2.701,-1.907c-0.003,-0.004 -0.004,-0.008 -0.007,-0.011l-0.294,-0.418c-0.888,-1.307 -3.446,-5.464 -2.828,-9.097c1.305,-7.671 8.231,-8.494 14.341,-9.221c2.552,-0.303 4.756,-0.565 6.324,-1.313c1.135,-0.541 2.09,-0.965 2.668,-1.214c0.007,-0.003 0.014,-0.002 0.019,0.003c0.102,0.085 0.233,0.136 0.372,0.136c0.024,0 0.047,-0.001 0.071,-0.004c0.317,-0.038 0.543,-0.327 0.505,-0.644c-0.014,-0.12 -0.019,-0.294 -0.008,-0.446l-0,-0.002c0.027,-0.213 0.113,-0.557 0.339,-0.735c0.213,-0.169 0.559,-0.192 1.026,-0.07l0.241,0.063c0.007,0.002 0.012,0.001 0.018,-0.003l0.208,-0.137c1.144,-0.758 3.243,-1.98 4.005,-2.036c1.089,-0.079 2.296,0.204 2.308,0.208l0.171,0.041l2.629,-0.971Z" style="fill:#fff;"/><path d="M75.286,38.816l-3.243,1.197c-0.004,0.001 -0.008,0.001 -0.012,0.001c-0.415,-0.086 -1.468,-0.272 -2.481,-0.197c-1.16,0.086 -3.509,1.544 -4.347,2.086c-0.004,0.002 -0.008,0.003 -0.012,0.002c-0.717,-0.135 -1.312,-0.021 -1.771,0.34c-0.339,0.267 -0.531,0.617 -0.643,0.941c-0.06,0.146 -0.098,0.308 -0.119,0.469c-0,0.006 -0.004,0.011 -0.01,0.013c-0.528,0.226 -1.63,0.706 -2.976,1.348c-1.396,0.665 -3.613,0.929 -5.961,1.208c-6.191,0.736 -13.896,1.652 -15.346,10.177c-0.415,2.436 0.39,4.996 1.313,6.969c0.007,0.016 -0.006,0.032 -0.023,0.028c-0.3,-0.085 -0.626,-0.132 -0.987,-0.132c-1.968,-0 -2.946,1.396 -3.807,2.629c-0.704,1.004 -1.324,1.889 -2.389,2.09c-0.274,0.051 -0.472,0.29 -0.472,0.568c-0,0.356 0.319,0.638 0.67,0.575c1.533,-0.276 2.38,-1.487 3.14,-2.571c0.801,-1.144 1.494,-2.133 2.858,-2.133c1.217,-0 1.9,0.785 2.6,1.765c0.241,0.359 0.405,0.578 0.437,0.62c-0,0 0.002,0.002 0.003,0.004c0.821,1.161 1.794,2.373 3.628,2.373c1.968,-0 2.946,-1.397 3.808,-2.629c0.801,-1.144 1.493,-2.133 2.86,-2.133c1.364,-0 2.057,0.989 2.858,2.133c0.864,1.232 1.841,2.629 3.81,2.629c1.969,-0 2.946,-1.397 3.807,-2.629l0.011,-0.016c0.797,-1.137 1.49,-2.117 2.85,-2.117c1.364,-0 2.056,0.989 2.858,2.133c0.759,1.084 1.607,2.295 3.14,2.571c0.35,0.063 0.669,-0.219 0.669,-0.575c0,-0.278 -0.197,-0.517 -0.471,-0.568c-1.065,-0.201 -1.685,-1.086 -2.389,-2.093c-0.861,-1.23 -1.839,-2.626 -3.807,-2.626c-0.509,-0 -0.95,0.095 -1.341,0.255c-0.016,0.007 -0.032,-0.009 -0.026,-0.026c0.304,-0.794 0.593,-1.639 0.897,-2.537c1.434,-4.227 3.217,-9.487 8.783,-15.372c3.642,-3.852 1.978,-6.311 1.905,-6.413l-0.247,-0.35c-0.004,-0.006 -0.011,-0.009 -0.018,-0.009c-0.002,0 -0.005,0.001 -0.007,0.002Zm-0.543,1.434c0.012,-0.004 0.026,0.002 0.029,0.015c0.169,0.707 0.166,2.276 -1.961,4.525c-5.739,6.07 -7.568,11.463 -9.037,15.796c-0.71,2.093 -1.324,3.901 -2.248,5.314c-0.8,1.142 -1.492,2.128 -2.854,2.128c-1.367,-0 -2.059,-0.989 -2.861,-2.136c-0.861,-1.23 -1.838,-2.626 -3.807,-2.626c-1.969,-0 -2.946,1.396 -3.81,2.629c-0.801,1.144 -1.494,2.133 -2.858,2.133c-1.275,-0 -1.964,-0.862 -2.701,-1.907c-0.003,-0.004 -0.004,-0.008 -0.007,-0.011l-0.294,-0.418c-0.888,-1.307 -3.446,-5.464 -2.828,-9.097c1.305,-7.671 8.231,-8.494 14.341,-9.221c2.552,-0.303 4.756,-0.565 6.324,-1.313c1.135,-0.541 2.09,-0.965 2.668,-1.214c0.007,-0.003 0.014,-0.002 0.019,0.003c0.102,0.085 0.233,0.136 0.372,0.136c0.024,0 0.047,-0.001 0.071,-0.004c0.317,-0.038 0.543,-0.327 0.505,-0.644c-0.014,-0.12 -0.019,-0.294 -0.008,-0.446l-0,-0.002c0.027,-0.213 0.113,-0.557 0.339,-0.735c0.213,-0.169 0.559,-0.192 1.026,-0.07l0.241,0.063c0.007,0.002 0.012,0.001 0.018,-0.003l0.208,-0.137c1.144,-0.758 3.243,-1.98 4.005,-2.036c1.089,-0.079 2.296,0.204 2.308,0.208l0.171,0.041l2.629,-0.971Z" style="fill:url(#_Linear1);fill-rule:nonzero;"/><path d="M70.209,41.639c-0.207,0.022 -0.39,0.143 -0.498,0.313c-0.097,0.153 -0.134,0.35 -0.073,0.561c0.082,0.284 0.361,0.465 0.656,0.465l0.002,-0c0.209,-0.005 0.398,-0.108 0.519,-0.267c0.084,-0.11 0.135,-0.25 0.135,-0.403c-0,-0.37 -0.299,-0.671 -0.67,-0.671c-0.022,-0 -0.046,0.002 -0.071,0.002Z" style="fill:url(#_Linear2);fill-rule:nonzero;"/></g></g><defs><linearGradient id="_Linear1" x1="0" y1="0" x2="1" y2="0" gradientUnits="userSpaceOnUse" gradientTransform="matrix(0,35.0853,-35.0853,0,54.0001,35.4395)"><stop offset="0" style="stop-color:#45c4dc;stop-opacity:1"/><stop offset="1" style="stop-color:#f070ab;stop-opacity:1"/></linearGradient><linearGradient id="_Linear2" x1="0" y1="0" x2="1" y2="0" gradientUnits="userSpaceOnUse" gradientTransform="matrix(0,35.0903,-35.0903,0,70.2793,35.4347)"><stop offset="0" style="stop-color:#45c4dc;stop-opacity:1"/><stop offset="1" style="stop-color:#f070ab;stop-opacity:1"/></linearGradient></defs></svg>