<?xml version="1.0" encoding="UTF-8" standalone="no"?><!DOCTYPE svg PUBLIC "-//W3C//DTD SVG 1.1//EN" "http://www.w3.org/Graphics/SVG/1.1/DTD/svg11.dtd"><svg width="100%" height="100%" viewBox="0 0 108 108" version="1.1" xmlns="http://www.w3.org/2000/svg" xmlns:xlink="http://www.w3.org/1999/xlink" xml:space="preserve" xmlns:serif="http://www.serif.com/" style="fill-rule:evenodd;clip-rule:evenodd;stroke-linejoin:round;stroke-miterlimit:2;"><g id="Master"><g id="bear"><path d="M77.599,38.357c0.014,-0.005 0.029,0.002 0.032,0.016c0.193,0.805 0.19,2.591 -2.23,5.149c-6.53,6.905 -8.61,13.041 -10.282,17.971c-0.807,2.38 -1.505,4.437 -2.557,6.046c-0.91,1.299 -1.698,2.42 -3.247,2.42c-1.555,0 -2.342,-1.125 -3.254,-2.43c-0.98,-1.399 -2.092,-2.988 -4.332,-2.988c-2.239,0 -3.351,1.589 -4.334,2.991c-0.912,1.302 -1.7,2.427 -3.252,2.427c-1.451,0 -2.234,-0.98 -3.073,-2.169c-0.003,-0.004 -0.004,-0.009 -0.008,-0.013l-0.335,-0.475c-1.009,-1.488 -3.919,-6.216 -3.216,-10.35c1.484,-8.727 9.364,-9.664 16.315,-10.49c2.903,-0.345 5.41,-0.643 7.194,-1.494c1.291,-0.616 2.379,-1.097 3.036,-1.382c0.007,-0.003 0.016,-0.001 0.022,0.004c0.116,0.097 0.265,0.155 0.423,0.155c0.027,0 0.053,-0.001 0.08,-0.005c0.361,-0.043 0.619,-0.372 0.575,-0.732c-0.016,-0.137 -0.021,-0.335 -0.009,-0.507l-0,-0.002c0.031,-0.244 0.128,-0.635 0.385,-0.837c0.243,-0.192 0.637,-0.218 1.168,-0.079l0.274,0.071c0.007,0.002 0.014,0.001 0.02,-0.003l0.237,-0.156c1.301,-0.862 3.69,-2.253 4.557,-2.316c1.238,-0.091 2.611,0.232 2.625,0.236l0.195,0.046l2.991,-1.104Z" style="fill:#fff;"/><path d="M78.216,36.725l-3.689,1.362c-0.005,0.001 -0.009,0.002 -0.013,0.001c-0.473,-0.098 -1.67,-0.309 -2.823,-0.224c-1.32,0.098 -3.992,1.757 -4.945,2.373c-0.005,0.003 -0.01,0.004 -0.014,0.003c-0.816,-0.153 -1.493,-0.024 -2.015,0.387c-0.386,0.303 -0.605,0.702 -0.731,1.07c-0.069,0.167 -0.112,0.351 -0.136,0.533c-0,0.007 -0.005,0.013 -0.011,0.016c-0.601,0.256 -1.855,0.803 -3.386,1.533c-1.588,0.757 -4.111,1.057 -6.782,1.375c-7.043,0.837 -15.809,1.879 -17.459,11.578c-0.472,2.77 0.444,5.683 1.494,7.928c0.009,0.018 -0.007,0.037 -0.026,0.031c-0.341,-0.095 -0.712,-0.15 -1.123,-0.15c-2.239,0 -3.352,1.589 -4.331,2.991c-0.801,1.143 -1.506,2.15 -2.718,2.379c-0.311,0.058 -0.537,0.33 -0.537,0.646c0,0.405 0.364,0.725 0.762,0.654c1.744,-0.315 2.708,-1.692 3.573,-2.925c0.911,-1.302 1.7,-2.427 3.251,-2.427c1.385,-0 2.161,0.893 2.958,2.008c0.274,0.408 0.461,0.658 0.497,0.706c-0,-0 0.003,0.002 0.003,0.004c0.935,1.321 2.042,2.699 4.128,2.699c2.24,0 3.352,-1.588 4.332,-2.99c0.912,-1.302 1.699,-2.427 3.254,-2.427c1.552,-0 2.34,1.125 3.251,2.427c0.983,1.402 2.095,2.99 4.335,2.99c2.24,0 3.351,-1.588 4.332,-2.99l0.012,-0.018c0.907,-1.294 1.695,-2.409 3.242,-2.409c1.552,-0 2.34,1.125 3.251,2.427c0.865,1.233 1.829,2.61 3.573,2.924c0.398,0.072 0.762,-0.248 0.762,-0.653c-0,-0.316 -0.225,-0.588 -0.536,-0.646c-1.213,-0.229 -1.918,-1.236 -2.718,-2.382c-0.981,-1.399 -2.093,-2.988 -4.332,-2.988c-0.579,0 -1.08,0.109 -1.525,0.291c-0.019,0.008 -0.037,-0.01 -0.03,-0.029c0.346,-0.904 0.674,-1.865 1.021,-2.887c1.631,-4.809 3.66,-10.793 9.991,-17.489c4.144,-4.382 2.251,-7.179 2.168,-7.296l-0.281,-0.397c-0.005,-0.007 -0.012,-0.01 -0.02,-0.01c-0.003,-0 -0.006,0 -0.009,0.001Zm-0.617,1.632c0.014,-0.005 0.029,0.002 0.032,0.016c0.193,0.805 0.19,2.591 -2.23,5.149c-6.53,6.905 -8.61,13.041 -10.282,17.971c-0.807,2.38 -1.505,4.437 -2.557,6.046c-0.91,1.299 -1.698,2.42 -3.247,2.42c-1.555,0 -2.342,-1.125 -3.254,-2.43c-0.98,-1.399 -2.092,-2.988 -4.332,-2.988c-2.239,0 -3.351,1.589 -4.334,2.991c-0.912,1.302 -1.7,2.427 -3.252,2.427c-1.451,0 -2.234,-0.98 -3.073,-2.169c-0.003,-0.004 -0.004,-0.009 -0.008,-0.013l-0.335,-0.475c-1.009,-1.488 -3.919,-6.216 -3.216,-10.35c1.484,-8.727 9.364,-9.664 16.315,-10.49c2.903,-0.345 5.41,-0.643 7.194,-1.494c1.291,-0.616 2.379,-1.097 3.036,-1.382c0.007,-0.003 0.016,-0.001 0.022,0.004c0.116,0.097 0.265,0.155 0.423,0.155c0.027,0 0.053,-0.001 0.08,-0.005c0.361,-0.043 0.619,-0.372 0.575,-0.732c-0.016,-0.137 -0.021,-0.335 -0.009,-0.507l-0,-0.002c0.031,-0.244 0.128,-0.635 0.385,-0.837c0.243,-0.192 0.637,-0.218 1.168,-0.079l0.274,0.071c0.007,0.002 0.014,0.001 0.02,-0.003l0.237,-0.156c1.301,-0.862 3.69,-2.253 4.557,-2.316c1.238,-0.091 2.611,0.232 2.625,0.236l0.195,0.046l2.991,-1.104Z" style="fill:url(#_Linear1);fill-rule:nonzero;"/><path d="M72.441,39.938c-0.236,0.024 -0.444,0.162 -0.567,0.355c-0.11,0.175 -0.152,0.398 -0.083,0.638c0.093,0.323 0.411,0.529 0.747,0.529l0.001,0c0.239,-0.006 0.453,-0.122 0.591,-0.303c0.095,-0.125 0.153,-0.285 0.153,-0.459c0,-0.42 -0.34,-0.764 -0.762,-0.764c-0.025,0 -0.052,0.004 -0.08,0.004Z" style="fill:url(#_Linear2);fill-rule:nonzero;"/></g></g><defs><linearGradient id="_Linear1" x1="0" y1="0" x2="1" y2="0" gradientUnits="userSpaceOnUse" gradientTransform="matrix(0,39.9157,-39.9157,0,54.0001,32.8842)"><stop offset="0" style="stop-color:#45c4dc;stop-opacity:1"/><stop offset="1" style="stop-color:#f070ab;stop-opacity:1"/></linearGradient><linearGradient id="_Linear2" x1="0" y1="0" x2="1" y2="0" gradientUnits="userSpaceOnUse" gradientTransform="matrix(0,39.9214,-39.9214,0,72.5205,32.8787)"><stop offset="0" style="stop-color:#45c4dc;stop-opacity:1"/><stop offset="1" style="stop-color:#f070ab;stop-opacity:1"/></linearGradient></defs></svg>