<?xml version="1.0" encoding="UTF-8" standalone="no"?>
<!DOCTYPE svg PUBLIC "-//W3C//DTD SVG 1.1//EN" "http://www.w3.org/Graphics/SVG/1.1/DTD/svg11.dtd">
<svg width="100%" height="100%" viewBox="0 0 595 411" version="1.1" xmlns="http://www.w3.org/2000/svg" xmlns:xlink="http://www.w3.org/1999/xlink" xml:space="preserve" xmlns:serif="http://www.serif.com/" style="fill-rule:evenodd;clip-rule:evenodd;stroke-linejoin:round;stroke-miterlimit:2;">
    <defs>
        <linearGradient id="_Linear1" x1="0" y1="0" x2="1" y2="0" gradientUnits="userSpaceOnUse" gradientTransform="matrix(1,0,0,-1,0,0.000889243)"><stop offset="0" style="stop-color:rgb(69,196,220);stop-opacity:1"/><stop offset="1" style="stop-color:rgb(240,112,171);stop-opacity:1"/></linearGradient>
        <linearGradient id="_Linear2" x1="0" y1="0" x2="1" y2="0" gradientUnits="userSpaceOnUse" gradientTransform="matrix(1,0,0,-1,0,-0.0369133)"><stop offset="0" style="stop-color:rgb(69,196,220);stop-opacity:1"/><stop offset="1" style="stop-color:rgb(240,112,171);stop-opacity:1"/></linearGradient>
    </defs>
    <g transform="matrix(1,0,0,1,-292.258,-1447.23)">
        <g transform="matrix(4.16667,0,0,4.16667,0,0)">
            <g transform="matrix(0,113.703,113.703,0,194.077,336.383)">
                <path d="M0.177,-0.001C0.177,-0.007 0.181,-0.012 0.186,-0.015C0.19,-0.018 0.196,-0.019 0.202,-0.017C0.21,-0.015 0.215,-0.007 0.215,0.001L0.215,0.001C0.215,0.007 0.212,0.013 0.207,0.016C0.204,0.019 0.2,0.02 0.196,0.02C0.185,0.02 0.177,0.011 0.177,0.001C0.177,0 0.177,-0 0.177,-0.001Z" style="fill:url(#_Linear1);fill-rule:nonzero;"/>
            </g>
        </g>
        <g transform="matrix(4.16667,0,0,4.16667,0,0)">
            <g transform="matrix(0,113.687,113.687,0,145.625,336.399)">
                <path d="M0.096,0.57L0.13,0.477C0.13,0.477 0.13,0.477 0.13,0.477C0.128,0.465 0.123,0.435 0.125,0.406C0.127,0.373 0.169,0.306 0.184,0.282C0.184,0.282 0.184,0.282 0.184,0.282C0.18,0.262 0.184,0.245 0.194,0.232C0.202,0.222 0.212,0.216 0.221,0.213C0.225,0.212 0.23,0.21 0.234,0.21C0.234,0.21 0.234,0.21 0.235,0.21C0.241,0.195 0.255,0.163 0.273,0.125C0.292,0.085 0.299,0.022 0.307,-0.045C0.328,-0.222 0.354,-0.441 0.597,-0.483C0.667,-0.494 0.74,-0.471 0.796,-0.445C0.797,-0.445 0.797,-0.445 0.797,-0.446C0.794,-0.454 0.793,-0.464 0.793,-0.474C0.793,-0.53 0.833,-0.558 0.868,-0.582C0.897,-0.602 0.922,-0.62 0.928,-0.651C0.929,-0.658 0.936,-0.664 0.944,-0.664C0.954,-0.664 0.962,-0.655 0.96,-0.645C0.952,-0.601 0.918,-0.577 0.887,-0.555C0.854,-0.533 0.826,-0.513 0.826,-0.474C0.826,-0.439 0.848,-0.42 0.876,-0.4C0.887,-0.393 0.893,-0.388 0.894,-0.387C0.894,-0.387 0.894,-0.387 0.894,-0.387C0.927,-0.364 0.962,-0.336 0.962,-0.284C0.962,-0.228 0.922,-0.2 0.887,-0.175C0.854,-0.152 0.826,-0.133 0.826,-0.094C0.826,-0.055 0.854,-0.035 0.887,-0.012C0.922,0.012 0.962,0.04 0.962,0.096C0.962,0.152 0.922,0.18 0.887,0.205L0.886,0.205C0.854,0.228 0.826,0.248 0.826,0.286C0.826,0.325 0.854,0.345 0.887,0.368C0.918,0.389 0.952,0.414 0.96,0.457C0.962,0.467 0.954,0.476 0.944,0.476C0.936,0.476 0.929,0.471 0.928,0.463C0.922,0.433 0.897,0.415 0.868,0.395C0.833,0.37 0.793,0.342 0.793,0.286C0.793,0.272 0.796,0.259 0.8,0.248C0.801,0.248 0.8,0.247 0.8,0.247C0.777,0.256 0.753,0.264 0.727,0.273C0.607,0.314 0.457,0.365 0.289,0.523C0.179,0.627 0.109,0.58 0.106,0.578L0.096,0.57C0.096,0.57 0.096,0.57 0.096,0.57C0.096,0.57 0.096,0.57 0.096,0.57ZM0.137,0.554C0.137,0.555 0.137,0.555 0.138,0.555C0.158,0.56 0.202,0.56 0.267,0.499C0.44,0.336 0.593,0.284 0.717,0.242C0.776,0.221 0.828,0.204 0.868,0.178C0.901,0.155 0.929,0.135 0.929,0.096C0.929,0.057 0.901,0.038 0.868,0.015C0.833,-0.01 0.793,-0.038 0.793,-0.094C0.793,-0.15 0.833,-0.178 0.868,-0.202C0.901,-0.225 0.929,-0.245 0.929,-0.284C0.929,-0.32 0.904,-0.34 0.874,-0.361C0.874,-0.361 0.874,-0.361 0.874,-0.361L0.862,-0.369C0.825,-0.395 0.707,-0.468 0.603,-0.45C0.384,-0.413 0.361,-0.215 0.34,-0.041C0.332,0.031 0.324,0.094 0.303,0.139C0.287,0.171 0.275,0.199 0.268,0.215C0.268,0.215 0.268,0.215 0.268,0.216C0.271,0.218 0.272,0.222 0.272,0.226C0.272,0.227 0.272,0.228 0.272,0.228C0.271,0.237 0.263,0.244 0.254,0.243C0.25,0.242 0.245,0.242 0.241,0.242L0.241,0.242C0.235,0.243 0.225,0.246 0.22,0.252C0.215,0.258 0.214,0.268 0.218,0.281L0.22,0.288C0.22,0.288 0.22,0.288 0.22,0.289L0.216,0.295C0.194,0.327 0.159,0.387 0.158,0.409C0.155,0.44 0.164,0.474 0.164,0.474L0.165,0.479L0.137,0.554Z" style="fill:url(#_Linear2);fill-rule:nonzero;"/>
            </g>
        </g>
    </g>
</svg>
